<?xml version="1.0" encoding="UTF-8" standalone="no"?>
<svg width="150px" height="25px" viewBox="0 0 150 25" version="1.1" xmlns="http://www.w3.org/2000/svg" xmlns:xlink="http://www.w3.org/1999/xlink" xmlns:sketch="http://www.bohemiancoding.com/sketch/ns">
    <!-- Generator: Sketch 3.3.2 (12043) - http://www.bohemiancoding.com/sketch -->
    <title>phs-logo</title>
    <desc>Created with Sketch.</desc>
    <defs></defs>
    <g id="Main-Activity-Dash" stroke="none" stroke-width="1" fill="none" fill-rule="evenodd" sketch:type="MSPage">
        <g id="Main-Activity-Dash---Notifications-/-Account" sketch:type="MSArtboardGroup" transform="translate(-272.000000, -15.000000)">
            <g id="primary-nav" sketch:type="MSLayerGroup">
                <g id="phs-logo" transform="translate(272.000000, 15.000000)" sketch:type="MSShapeGroup">
                    <path d="M11.72825,13.06275 C11.72825,14.05875 11.59925,14.972 11.34225,15.80175 C11.0845,16.632 10.7155,17.3455 10.23425,17.943 C9.7525,18.54075 9.15075,19.00575 8.42875,19.33775 C7.70675,19.6695 6.88875,19.8355 5.97625,19.8355 C5.36175,19.8355 4.79725,19.76075 4.283,19.6115 C3.76825,19.462 3.34475,19.29625 3.01275,19.1135 L3.01275,24.1685 L0,24.1685 L0,6.962 C0.614,6.79625 1.3695,6.63825 2.266,6.48875 C3.1625,6.3395 4.1085,6.26475 5.1045,6.26475 C6.1335,6.26475 7.055,6.42275 7.8685,6.738 C8.68175,7.0535 9.375,7.506 9.94775,8.095 C10.5205,8.6845 10.96,9.3985 11.2675,10.2365 C11.5745,11.075 11.72825,12.017 11.72825,13.06275 L11.72825,13.06275 Z M8.6405,13.1125 C8.6405,11.76775 8.33725,10.722 7.7315,9.975 C7.1255,9.228 6.1505,8.8545 4.80575,8.8545 C4.52325,8.8545 4.22875,8.867 3.92175,8.892 C3.6145,8.91675 3.31175,8.97075 3.01275,9.0535 L3.01275,16.499 C3.27825,16.68175 3.63125,16.85175 4.07125,17.0095 C4.511,17.1675 4.98,17.246 5.478,17.246 C6.57375,17.246 7.3745,16.8725 7.881,16.12525 C8.38725,15.37825 8.6405,14.37425 8.6405,13.1125 L8.6405,13.1125 Z" id="Fill-1" fill="#FFFFFF"></path>
                    <path d="M14.1185,13.1125 C14.1185,11.96725 14.2885,10.963 14.629,10.09975 C14.969,9.2365 15.4215,8.5185 15.986,7.9455 C16.55025,7.373 17.1975,6.94125 17.92825,6.65075 C18.6585,6.3605 19.4055,6.215 20.16925,6.215 C21.962,6.215 23.3605,6.7715 24.365,7.8835 C25.36925,8.99575 25.8715,10.656 25.8715,12.8635 C25.8715,13.02975 25.86725,13.21625 25.859,13.42375 C25.8505,13.63175 25.838,13.81825 25.82175,13.984 L17.231,13.984 C17.314,15.02975 17.68325,15.839 18.339,16.41175 C18.99475,16.9845 19.94525,17.27075 21.19025,17.27075 C21.9205,17.27075 22.5885,17.20475 23.19475,17.07175 C23.8005,16.939 24.278,16.79775 24.6265,16.6485 L25.025,19.1135 C24.85875,19.19675 24.63025,19.284 24.34025,19.375 C24.0495,19.46625 23.7175,19.54925 23.344,19.624 C22.9705,19.69875 22.568,19.76075 22.13625,19.8105 C21.7045,19.8605 21.265,19.8855 20.81675,19.8855 C19.67125,19.8855 18.67525,19.715 17.82875,19.375 C16.982,19.035 16.28475,18.56175 15.737,17.9555 C15.18925,17.34975 14.78225,16.636 14.51675,15.81425 C14.251,14.9925 14.1185,14.092 14.1185,13.1125 L14.1185,13.1125 Z M22.8585,11.76775 C22.8585,11.35325 22.80025,10.9585 22.68425,10.585 C22.568,10.2115 22.398,9.88775 22.17375,9.614 C21.9495,9.34025 21.67575,9.1245 21.352,8.96675 C21.02825,8.809 20.6425,8.73 20.19425,8.73 C19.72925,8.73 19.32275,8.81725 18.974,8.9915 C18.6255,9.16575 18.3305,9.39425 18.09,9.67625 C17.84925,9.9585 17.6625,10.2825 17.52975,10.64725 C17.39675,11.0125 17.30575,11.386 17.256,11.76775 L22.8585,11.76775 L22.8585,11.76775 Z" id="Fill-2" fill="#FFFFFF"></path>
                    <path d="M28.90925,3.10225 L31.92225,2.6045 L31.92225,6.53875 L36.55375,6.53875 L36.55375,9.0535 L31.92225,9.0535 L31.92225,14.3575 C31.92225,15.40325 32.088,16.15025 32.4205,16.5985 C32.75225,17.04675 33.31675,17.27075 34.1135,17.27075 C34.6615,17.27075 35.147,17.213 35.57025,17.09675 C35.9935,16.9805 36.32975,16.8725 36.57875,16.77275 L37.07675,19.16325 C36.728,19.31275 36.27125,19.46625 35.70725,19.624 C35.14275,19.7815 34.4785,19.8605 33.71525,19.8605 C32.78525,19.8605 32.0095,19.73625 31.387,19.487 C30.7645,19.238 30.27025,18.877 29.90525,18.40375 C29.54,17.93075 29.28275,17.358 29.1335,16.68575 C28.984,16.0135 28.90925,15.24575 28.90925,14.3825 L28.90925,3.10225" id="Fill-3" fill="#FFFFFF"></path>
                    <path d="M39.46725,19.56175 L39.46725,0.737 L42.48,0.23875 L42.48,6.68825 C42.812,6.57225 43.198,6.47275 43.638,6.3895 C44.07775,6.3065 44.5135,6.26475 44.94525,6.26475 C45.99125,6.26475 46.8585,6.4105 47.5475,6.70075 C48.236,6.99125 48.78825,7.39775 49.20325,7.92075 C49.618,8.4435 49.913,9.0705 50.08725,9.8005 C50.2615,10.5315 50.34875,11.3445 50.34875,12.241 L50.34875,19.56175 L47.33575,19.56175 L47.33575,12.71425 C47.33575,12.017 47.28975,11.4235 47.19875,10.9335 C47.10725,10.44425 46.958,10.04575 46.75075,9.7385 C46.54275,9.4315 46.265,9.20725 45.9165,9.066 C45.56775,8.92525 45.136,8.8545 44.6215,8.8545 C44.22325,8.8545 43.81625,8.896 43.4015,8.979 C42.98625,9.06225 42.67925,9.137 42.48,9.203 L42.48,19.56175 L39.46725,19.56175" id="Fill-4" fill="#EC5D3C"></path>
                    <path d="M65.737,13.03775 C65.737,14.06725 65.5875,15.00475 65.28875,15.8515 C64.98975,16.69825 64.56675,17.42025 64.01875,18.01775 C63.471,18.6155 62.811,19.08025 62.03925,19.41225 C61.26725,19.744 60.4165,19.91025 59.48675,19.91025 C58.557,19.91025 57.7105,19.744 56.947,19.41225 C56.18325,19.08025 55.52775,18.6155 54.97975,18.01775 C54.432,17.42025 54.0045,16.69825 53.6975,15.8515 C53.39,15.00475 53.23675,14.06725 53.23675,13.03775 C53.23675,12.00875 53.39,11.075 53.6975,10.2365 C54.0045,9.3985 54.436,8.68 54.99225,8.0825 C55.54825,7.485 56.20825,7.02425 56.97175,6.70075 C57.73525,6.377 58.57375,6.215 59.48675,6.215 C60.3995,6.215 61.2425,6.377 62.01425,6.70075 C62.78625,7.02425 63.446,7.485 63.994,8.0825 C64.54175,8.68 64.969,9.3985 65.27625,10.2365 C65.58325,11.075 65.737,12.00875 65.737,13.03775 L65.737,13.03775 Z M62.64925,13.03775 C62.64925,11.743 62.371,10.718 61.815,9.9625 C61.25875,9.20725 60.483,8.8295 59.48675,8.8295 C58.49075,8.8295 57.7145,9.20725 57.1585,9.9625 C56.60225,10.718 56.3245,11.743 56.3245,13.03775 C56.3245,14.34925 56.60225,15.387 57.1585,16.15025 C57.7145,16.914 58.49075,17.29575 59.48675,17.29575 C60.483,17.29575 61.25875,16.914 61.815,16.15025 C62.371,15.387 62.64925,14.34925 62.64925,13.03775 L62.64925,13.03775 Z" id="Fill-5" fill="#EC5D3C"></path>
                    <path d="M76.26975,12.71425 C76.26975,11.35325 76.09925,10.3695 75.75925,9.7635 C75.41875,9.1575 74.78375,8.8545 73.8545,8.8545 C73.52225,8.8545 73.15725,8.8795 72.75875,8.92925 C72.3605,8.979 72.0615,9.02075 71.86225,9.0535 L71.86225,19.56175 L68.8495,19.56175 L68.8495,6.962 C69.43025,6.79625 70.18975,6.63825 71.12775,6.48875 C72.0655,6.3395 73.0575,6.26475 74.10325,6.26475 C74.99975,6.26475 75.73425,6.38125 76.30725,6.6135 C76.87975,6.84625 77.357,7.15325 77.739,7.535 C77.92125,7.402 78.1535,7.26075 78.436,7.1115 C78.71825,6.962 79.0335,6.825 79.3825,6.70075 C79.731,6.576 80.1,6.47275 80.4905,6.3895 C80.88025,6.3065 81.27475,6.26475 81.673,6.26475 C82.6855,6.26475 83.51975,6.4105 84.17575,6.70075 C84.83125,6.99125 85.34625,7.39775 85.71975,7.92075 C86.093,8.4435 86.35025,9.07475 86.49125,9.813 C86.6325,10.552 86.70325,11.36125 86.70325,12.241 L86.70325,19.56175 L83.69025,19.56175 L83.69025,12.71425 C83.69025,11.35325 83.524,10.3695 83.192,9.7635 C82.86,9.1575 82.221,8.8545 81.27475,8.8545 C80.793,8.8545 80.33675,8.9335 79.90525,9.091 C79.4735,9.249 79.14975,9.4025 78.93425,9.55175 C79.06675,9.96675 79.15825,10.40675 79.208,10.8715 C79.25775,11.3365 79.28275,11.83425 79.28275,12.3655 L79.28275,19.56175 L76.26975,19.56175 L76.26975,12.71425" id="Fill-6" fill="#EC5D3C"></path>
                    <path d="M89.666,13.1125 C89.666,11.96725 89.836,10.963 90.1765,10.09975 C90.5165,9.2365 90.969,8.5185 91.5335,7.9455 C92.09775,7.373 92.745,6.94125 93.476,6.65075 C94.206,6.3605 94.953,6.215 95.717,6.215 C97.50975,6.215 98.90825,6.7715 99.9125,7.8835 C100.91675,8.99575 101.419,10.656 101.419,12.8635 C101.419,13.02975 101.41475,13.21625 101.4065,13.42375 C101.398,13.63175 101.38575,13.81825 101.36925,13.984 L92.7785,13.984 C92.8615,15.02975 93.23075,15.839 93.8865,16.41175 C94.542,16.9845 95.49275,17.27075 96.73775,17.27075 C97.46825,17.27075 98.13625,17.20475 98.74225,17.07175 C99.34825,16.939 99.82525,16.79775 100.17425,16.6485 L100.57225,19.1135 C100.4065,19.19675 100.178,19.284 99.8875,19.375 C99.597,19.46625 99.26525,19.54925 98.89175,19.624 C98.51825,19.69875 98.1155,19.76075 97.684,19.8105 C97.25225,19.8605 96.8125,19.8855 96.36425,19.8855 C95.21875,19.8855 94.223,19.715 93.37625,19.375 C92.5295,19.035 91.83225,18.56175 91.2845,17.9555 C90.73675,17.34975 90.32975,16.636 90.0645,15.81425 C89.7985,14.9925 89.666,14.092 89.666,13.1125 L89.666,13.1125 Z M98.406,11.76775 C98.406,11.35325 98.34775,10.9585 98.23175,10.585 C98.1155,10.2115 97.9455,9.88775 97.72125,9.614 C97.49725,9.34025 97.22325,9.1245 96.8995,8.96675 C96.57575,8.809 96.19,8.73 95.74175,8.73 C95.277,8.73 94.87025,8.81725 94.52175,8.9915 C94.173,9.16575 93.878,9.39425 93.63775,9.67625 C93.397,9.9585 93.21,10.2825 93.0775,10.64725 C92.9445,11.0125 92.85325,11.386 92.8035,11.76775 L98.406,11.76775 L98.406,11.76775 Z" id="Fill-7" fill="#EC5D3C"></path>
                    <path d="M107.8685,17.3955 C108.66525,17.3955 109.246,17.3 109.61125,17.109 C109.97625,16.91825 110.15925,16.59025 110.15925,16.12525 C110.15925,15.694 109.964,15.33725 109.574,15.05475 C109.18375,14.7725 108.54075,14.46575 107.6445,14.1335 C107.0965,13.93425 106.594,13.7225 106.138,13.4985 C105.68125,13.27425 105.287,13.013 104.955,12.71425 C104.62275,12.41525 104.36125,12.05425 104.17075,11.631 C103.9795,11.20775 103.88425,10.689 103.88425,10.07475 C103.88425,8.8795 104.324,7.9375 105.204,7.24825 C106.08375,6.56 107.27875,6.215 108.78975,6.215 C109.553,6.215 110.28375,6.28575 110.981,6.42675 C111.67825,6.56775 112.201,6.705 112.5495,6.8375 L112.002,9.27775 C111.6695,9.12825 111.2465,8.9915 110.73175,8.867 C110.21725,8.7425 109.6195,8.68 108.939,8.68 C108.32475,8.68 107.82675,8.784 107.445,8.9915 C107.063,9.199 106.8725,9.5185 106.8725,9.95 C106.8725,10.16625 106.90975,10.357 106.98425,10.523 C107.059,10.689 107.1875,10.84275 107.37025,10.9835 C107.553,11.12475 107.7935,11.266 108.0925,11.40675 C108.3915,11.548 108.75625,11.693 109.18825,11.8425 C109.90175,12.10825 110.50775,12.36975 111.006,12.627 C111.50375,12.88475 111.91475,13.17475 112.23825,13.4985 C112.562,13.82225 112.79875,14.19175 112.948,14.6065 C113.0975,15.0215 113.17225,15.51975 113.17225,16.1005 C113.17225,17.3455 112.7115,18.288 111.79025,18.92675 C110.869,19.56575 109.553,19.8855 107.8435,19.8855 C106.698,19.8855 105.77675,19.78975 105.0795,19.599 C104.38225,19.4085 103.8925,19.25475 103.6105,19.13825 L104.13325,16.6235 C104.5815,16.80625 105.11675,16.9805 105.7395,17.14625 C106.362,17.3125 107.0715,17.3955 107.8685,17.3955" id="Fill-8" fill="#FFFFFF"></path>
                    <path d="M115.83625,3.10225 L118.84925,2.6045 L118.84925,6.53875 L123.48075,6.53875 L123.48075,9.0535 L118.84925,9.0535 L118.84925,14.3575 C118.84925,15.40325 119.015,16.15025 119.34725,16.5985 C119.67925,17.04675 120.2435,17.27075 121.0405,17.27075 C121.58825,17.27075 122.07375,17.213 122.497,17.09675 C122.9205,16.9805 123.2565,16.8725 123.50575,16.77275 L124.0035,19.16325 C123.655,19.31275 123.19825,19.46625 122.634,19.624 C122.0695,19.7815 121.4055,19.8605 120.642,19.8605 C119.712,19.8605 118.9365,19.73625 118.314,19.487 C117.69125,19.238 117.19725,18.877 116.83225,18.40375 C116.46675,17.93075 116.20975,17.358 116.0605,16.68575 C115.911,16.0135 115.83625,15.24575 115.83625,14.3825 L115.83625,3.10225" id="Fill-9" fill="#FFFFFF"></path>
                    <path d="M130.7265,6.215 C131.72275,6.215 132.56075,6.3395 133.2415,6.5885 C133.92175,6.8375 134.4655,7.18625 134.8725,7.63425 C135.27925,8.0825 135.56975,8.6265 135.744,9.2655 C135.91825,9.9045 136.0055,10.60625 136.0055,11.3695 L136.0055,19.263 C135.5405,19.3625 134.839,19.48325 133.9015,19.624 C132.96325,19.76475 131.905,19.8355 130.7265,19.8355 C129.946,19.8355 129.2325,19.76075 128.585,19.6115 C127.93775,19.462 127.3855,19.2215 126.929,18.8895 C126.47225,18.5575 126.1155,18.126 125.8585,17.5945 C125.601,17.0635 125.4725,16.408 125.4725,15.6275 C125.4725,14.8805 125.61775,14.24975 125.90825,13.735 C126.1985,13.22075 126.593,12.80125 127.091,12.4775 C127.58925,12.15375 128.16575,11.9215 128.8215,11.78025 C129.47725,11.6395 130.162,11.56875 130.876,11.56875 C131.208,11.56875 131.5565,11.58975 131.92175,11.631 C132.28675,11.67275 132.677,11.743 133.09225,11.8425 L133.09225,11.3445 C133.09225,10.996 133.0505,10.664 132.9675,10.3485 C132.88425,10.03325 132.73925,9.75525 132.53175,9.51425 C132.32425,9.27375 132.05,9.08725 131.71025,8.95425 C131.3695,8.82125 130.942,8.75475 130.42775,8.75475 C129.7305,8.75475 129.09125,8.80475 128.51025,8.90425 C127.929,9.004 127.456,9.12025 127.091,9.253 L126.7175,6.81275 C127.09925,6.68 127.65525,6.5475 128.38575,6.41425 C129.116,6.2815 129.89625,6.215 130.7265,6.215 L130.7265,6.215 Z M130.97575,17.44525 C131.905,17.44525 132.6105,17.3955 133.09225,17.29575 L133.09225,13.959 C132.926,13.90925 132.68525,13.85975 132.37,13.80975 C132.05425,13.76 131.70575,13.735 131.32425,13.735 C130.99175,13.735 130.65575,13.76 130.3155,13.80975 C129.97525,13.85975 129.66825,13.951 129.3945,14.08375 C129.1205,14.2165 128.90025,14.40325 128.7345,14.64375 C128.5685,14.88475 128.4855,15.18775 128.4855,15.55275 C128.4855,16.26675 128.70975,16.7605 129.15775,17.03425 C129.606,17.30825 130.21175,17.44525 130.97575,17.44525 L130.97575,17.44525 Z" id="Fill-10" fill="#FFFFFF"></path>
                    <path d="M150,6.53875 C148.65775,11.48575 147.09975,15.968 145.32725,19.985 C144.99525,20.732 144.65425,21.371 144.30525,21.9025 C143.95625,22.4335 143.5655,22.8735 143.13375,23.222 C142.7015,23.57075 142.21925,23.8235 141.68775,23.9815 C141.156,24.13925 140.5415,24.218 139.8435,24.218 C139.378,24.218 138.9165,24.1685 138.45975,24.06875 C138.0025,23.969 137.658,23.861 137.42525,23.745 L137.97325,21.3295 C138.5735,21.56175 139.1655,21.67825 139.74925,21.67825 C140.53275,21.67825 141.14575,21.4915 141.58775,21.118 C142.0295,20.7445 142.41725,20.1675 142.75075,19.38725 C141.8005,17.5615 140.8875,15.5695 140.01225,13.4115 C139.13675,11.2535 138.3575,8.96275 137.67425,6.53875 L140.8865,6.53875 C141.053,7.236 141.25675,7.99175 141.49875,8.80475 C141.7405,9.61825 142.003,10.44425 142.28625,11.2825 C142.56975,12.12075 142.86925,12.955 143.186,13.785 C143.5025,14.61525 143.81925,15.387 144.136,16.1005 C144.66475,14.623 145.16025,13.05025 145.62325,11.38175 C146.086,9.71375 146.50725,8.09925 146.8875,6.53875 L150,6.53875" id="Fill-11" fill="#FFFFFF"></path>
                </g>
            </g>
        </g>
    </g>
</svg>